<svg width="139" height="37" viewBox="0 0 139 37" fill="none" xmlns="http://www.w3.org/2000/svg">
<path d="M22.8642 13.5068C22.473 14.8796 21.0354 16.0034 19.6623 16.0034H14.6825C13.3133 16.0034 12.5133 14.8855 12.9084 13.5068C13.3035 12.128 14.7373 11.0121 16.1103 11.0121H21.0902C22.4633 11.0121 23.2574 12.13 22.8642 13.5068Z" fill="#29E683"/>
<path d="M15.0364 23.4954C14.6452 24.8682 13.2076 25.992 11.8326 25.992H1.87678C0.507616 25.992 -0.294323 24.8741 0.100779 23.4954C0.495881 22.1166 1.92959 20.9987 3.30462 20.9987H13.2604C14.6354 20.9987 15.4295 22.1166 15.0364 23.4954Z" fill="#FAE584"/>
<path d="M29.5746 5.15499C30.7729 4.11348 31.1116 2.53733 30.3312 1.63457C29.5507 0.731807 27.9467 0.844283 26.7484 1.88579C25.5502 2.9273 25.2114 4.50344 25.9919 5.4062C26.7723 6.30897 28.3764 6.19649 29.5746 5.15499Z" fill="#FF8488"/>
<path d="M23.7824 35.1142C24.9807 34.0727 25.3194 32.4966 24.5389 31.5938C23.7585 30.691 22.1544 30.8035 20.9562 31.845C19.7579 32.8865 19.4192 34.4627 20.1996 35.3654C20.9801 36.2682 22.5841 36.1557 23.7824 35.1142Z" fill="#9985E7"/>
<path d="M6.72168 35.9747C5.35251 35.9747 4.55252 34.8568 4.94567 33.478C5.33881 32.0993 6.77449 30.9833 8.14953 30.9833H13.1274C14.4966 30.9833 15.2946 32.1012 14.9015 33.478C14.5083 34.8548 13.0746 35.9747 11.6996 35.9747H6.72168Z" fill="#00EADC"/>
<path d="M42.5079 33.478C42.1167 34.8509 40.6791 35.9747 39.306 35.9747H31.6113C30.2422 35.9747 29.4441 34.8568 29.8373 33.478C30.2304 32.0993 31.6661 30.9833 33.0392 30.9833C34.4123 30.9833 35.8479 29.8654 36.243 28.4867C36.5873 27.2805 36.022 26.2764 34.956 26.043C34.8089 26.0102 34.6587 25.9938 34.5081 25.994H21.7944C20.4252 25.994 19.6253 24.8761 20.0204 23.4973C20.4155 22.1186 21.8492 21.0007 23.2223 21.0007H30.6823C32.0514 21.0007 33.493 19.8827 33.8861 18.506C34.2792 17.1292 33.4851 16.0093 32.1101 16.0093H29.6182C28.2491 16.0093 27.4471 14.8914 27.8422 13.5127C28.2373 12.1339 29.671 11.018 31.0461 11.018H37.1369C38.5061 11.018 39.9476 9.90005 40.3407 8.52131C40.7339 7.14256 39.9398 6.02465 38.5647 6.02465H37.4029C36.0337 6.02465 35.2338 4.90871 35.6269 3.52996C36.02 2.15121 37.4557 1.0235 38.8307 1.0235H49.301C50.6701 1.0235 51.4701 2.1414 51.075 3.52015C50.6799 4.8989 49.2462 6.01485 47.8731 6.01485H47.1044C45.7353 6.01485 44.2957 7.13275 43.9006 8.5115L42.1246 14.7267C41.528 16.8095 39.3608 18.5001 37.2816 18.5001C39.3608 18.5001 40.5618 20.1887 39.9652 22.2735L38.1892 28.4808C37.798 29.8537 38.5902 30.9775 39.9652 30.9775H40.7339C42.107 30.9833 42.9011 32.1013 42.5079 33.478Z" fill="url(#paint0_linear_883_2796)"/>
<path d="M62.7225 24.6957C62.4598 25.5295 61.9036 26.2392 61.1577 26.6922V26.6922C61.1166 26.7157 61.0795 26.7393 61.0384 26.7609L60.9993 26.7844C59.0687 27.8964 56.927 28.5495 54.8204 28.5495C49.2812 28.5495 46.0773 24.0504 47.6597 18.5001V18.4883C49.2499 12.9302 55.0317 8.42523 60.569 8.42523C62.6794 8.42523 64.4476 9.07832 65.7424 10.1903C65.7776 10.2198 65.8129 10.2492 65.8441 10.2806C66.3214 10.7356 66.5053 11.4573 66.2725 12.281C65.8813 13.6539 64.4456 14.7757 63.0706 14.7757C62.6139 14.7894 62.1669 14.6423 61.8071 14.3599L61.7269 14.2874C60.9964 13.7031 60.083 13.3974 59.1489 13.4244C56.3558 13.4244 53.4415 15.6955 52.6395 18.4962C51.8415 21.2949 53.4571 23.5601 56.2483 23.5601C57.2941 23.5428 58.3189 23.263 59.2291 22.7462C59.3465 22.6834 59.4619 22.6148 59.5773 22.5501C59.9997 22.3265 60.4689 22.2063 60.9465 22.199C62.3215 22.2049 63.1176 23.315 62.7225 24.6957Z" fill="white"/>
<path d="M80.8679 8.42908C75.3247 8.42908 69.5449 12.9399 67.9586 18.4922C66.3723 24.0444 69.5742 28.5533 75.1174 28.5533C80.6605 28.5533 86.4404 24.0425 88.0267 18.4922C89.6129 12.9419 86.4091 8.42908 80.8679 8.42908ZM76.5413 23.562C73.7482 23.562 72.1307 21.2928 72.9326 18.4922C73.7345 15.6915 76.6489 13.4204 79.44 13.4204C82.2312 13.4204 83.8468 15.6915 83.0468 18.4922C82.2468 21.2928 79.3344 23.562 76.5413 23.562V23.562Z" fill="white"/>
<path fill-rule="evenodd" clip-rule="evenodd" d="M115.543 1.27259C115.237 1.10529 114.894 1.01953 114.546 1.02351C113.176 1.02351 111.737 2.14141 111.344 3.52017L109.55 9.79613C109.181 9.53523 108.788 9.31061 108.376 9.12539C107.763 8.85465 107.119 8.66288 106.458 8.55467C105.941 8.46694 105.417 8.42364 104.893 8.42522C104.351 8.42618 103.811 8.46814 103.275 8.55074C102.507 8.66862 101.751 8.85972 101.018 9.12146C96.8735 10.5924 93.1943 14.2305 91.9816 18.4883C91.5122 20.0074 91.4448 21.6227 91.786 23.1757C92.1408 24.7263 93.0311 26.1012 94.2994 27.057C95.5571 28.0043 97.204 28.5495 99.1307 28.5495C101.029 28.5217 102.894 28.0517 104.58 27.1766C104.661 27.1374 104.741 27.0962 104.821 27.0531C104.822 27.073 104.825 27.0927 104.83 27.1119L104.858 27.2433V27.2629C105.067 28.0278 105.734 28.5475 106.669 28.5475C108.038 28.5475 109.478 27.4296 109.871 26.0528L116.325 3.52017C116.605 2.5317 116.271 1.67268 115.543 1.27259ZM103.86 22.5618C102.87 23.1934 101.726 23.54 100.553 23.564C99.5453 23.5999 98.5634 23.242 97.8143 22.5658C96.8363 21.642 96.4608 20.1613 96.938 18.4942C97.5952 16.1917 99.6764 14.2481 101.953 13.6304C102.438 13.4947 102.94 13.4248 103.444 13.4225C103.917 13.4173 104.387 13.4881 104.838 13.6323C106.751 14.254 107.721 16.1957 107.064 18.4942C106.587 20.1593 105.362 21.6381 103.86 22.5618Z" fill="white"/>
<path d="M136.634 8.42915C135.613 8.42915 134.563 9.04301 133.925 9.92361L133.755 9.80005C132.519 8.92926 130.932 8.42719 129.088 8.42719C123.545 8.42719 117.765 12.938 116.179 18.4883C114.592 24.0386 117.794 28.5515 123.337 28.5515C125.235 28.5229 127.101 28.053 128.787 27.1786L129.031 27.0531C129.162 27.9337 129.862 28.5495 130.883 28.5495C132.253 28.5495 133.69 27.4316 134.085 26.0528L138.414 10.9199C138.803 9.54509 138.009 8.42915 136.634 8.42915ZM124.761 23.5621C121.968 23.5621 120.353 21.2909 121.153 18.4903C121.953 15.6896 124.869 13.4205 127.662 13.4205C130.455 13.4205 132.069 15.6896 131.267 18.4903C130.465 21.2909 127.554 23.5621 124.761 23.5621V23.5621Z" fill="white"/>
<defs>
<linearGradient id="paint0_linear_883_2796" x1="21.3852" y1="18.5001" x2="44.7777" y2="25.2656" gradientUnits="userSpaceOnUse">
<stop stop-color="#9985E7"/>
<stop offset="1" stop-color="#FF8988"/>
</linearGradient>
</defs>
</svg>
